<?xml version="1.0" encoding="UTF-8"?>
<svg xmlns="http://www.w3.org/2000/svg" xmlns:xlink="http://www.w3.org/1999/xlink" width="24" height="24" viewBox="0 0 24 24">
<path fill-rule="nonzero" fill="rgb(0%, 0%, 0%)" fill-opacity="1" d="M 16.472656 0.0585938 C 14.765625 0.375 13.351562 1.695312 12.589844 3.683594 C 12.140625 4.859375 11.976562 6.15625 12.105469 7.550781 L 12.152344 8.066406 L 12.242188 8.089844 C 12.851562 8.222656 13.679688 8.210938 14.242188 8.0625 C 16.691406 7.394531 18.402344 4.53125 18.292969 1.289062 C 18.285156 0.984375 18.257812 0.601562 18.238281 0.4375 L 18.203125 0.132812 L 17.972656 0.0859375 C 17.601562 0.0117188 16.800781 -0.0078125 16.472656 0.0585938 Z M 17.328125 1.730469 C 17.320312 2.492188 17.183594 3.210938 16.914062 3.933594 C 16.246094 5.710938 14.855469 6.882812 13.386719 6.910156 L 13.027344 6.917969 L 13.03125 6.460938 C 13.050781 4.742188 13.761719 3.101562 14.90625 2.128906 C 15.554688 1.574219 16.40625 1.242188 17.148438 1.265625 L 17.335938 1.269531 Z M 17.328125 1.730469 "/>
<path fill-rule="nonzero" fill="rgb(0%, 0%, 0%)" fill-opacity="1" d="M 9.382812 1.179688 C 8.207031 2.386719 7.53125 3.972656 7.371094 5.894531 C 7.339844 6.289062 7.351562 7.027344 7.390625 7.375 L 7.410156 7.527344 L 7.253906 7.261719 C 6.917969 6.675781 6.039062 5.660156 5.949219 5.75 C 5.148438 6.566406 4.765625 7.109375 4.371094 7.96875 C 3.839844 9.128906 3.585938 10.652344 3.703125 11.976562 C 3.714844 12.15625 3.722656 12.304688 3.722656 12.3125 C 3.714844 12.316406 3.644531 12.203125 3.566406 12.066406 C 3.371094 11.714844 2.929688 11.144531 2.59375 10.8125 L 2.3125 10.53125 L 2.085938 10.757812 C 1.753906 11.082031 1.261719 11.722656 1.027344 12.136719 C 0.652344 12.789062 0.367188 13.539062 0.191406 14.339844 C -0.046875 15.417969 -0.0585938 16.703125 0.160156 17.800781 C 0.308594 18.558594 0.597656 19.375 0.949219 20.019531 C 1.128906 20.347656 1.542969 20.929688 1.894531 21.347656 C 1.976562 21.441406 2.136719 21.660156 2.253906 21.835938 C 2.785156 22.621094 3.554688 23.285156 4.34375 23.636719 C 4.964844 23.917969 5.535156 24.023438 6.203125 23.988281 C 7.558594 23.914062 8.796875 23.164062 9.71875 21.859375 C 9.890625 21.613281 10.265625 20.992188 10.265625 20.949219 C 10.265625 20.9375 10.15625 20.75 10.027344 20.539062 C 9.742188 20.070312 9.355469 19.5625 9.097656 19.316406 C 8.992188 19.214844 8.910156 19.128906 8.914062 19.121094 C 8.921875 19.117188 9.023438 19.125 9.140625 19.148438 C 9.425781 19.195312 9.855469 19.191406 10.203125 19.144531 C 11.617188 18.941406 12.84375 18.023438 13.722656 16.523438 C 13.84375 16.324219 13.9375 16.144531 13.9375 16.128906 C 13.9375 16.070312 13.484375 15.359375 13.261719 15.066406 C 13.128906 14.902344 12.925781 14.652344 12.796875 14.523438 L 12.570312 14.289062 L 12.726562 14.320312 C 13.03125 14.382812 13.867188 14.347656 14.230469 14.261719 C 15.492188 13.964844 16.613281 13.0625 17.394531 11.707031 C 17.515625 11.507812 17.609375 11.328125 17.609375 11.316406 C 17.609375 11.25 17.183594 10.585938 16.914062 10.238281 C 16.28125 9.402344 15.558594 8.84375 14.710938 8.535156 C 14.257812 8.367188 13.871094 8.304688 13.339844 8.304688 C 12.84375 8.304688 12.496094 8.359375 12.046875 8.507812 C 11.886719 8.5625 11.753906 8.597656 11.75 8.589844 C 11.738281 8.582031 11.761719 8.457031 11.792969 8.316406 C 11.972656 7.546875 12.027344 6.378906 11.929688 5.535156 C 11.769531 4.121094 11.285156 2.859375 10.523438 1.855469 C 10.261719 1.503906 9.714844 0.910156 9.664062 0.910156 C 9.652344 0.910156 9.527344 1.03125 9.382812 1.179688 Z M 10.234375 3.34375 C 10.59375 3.988281 10.855469 4.800781 10.964844 5.628906 C 11.046875 6.25 11.027344 7.101562 10.917969 7.710938 C 10.78125 8.488281 10.441406 9.410156 10.179688 9.722656 C 10.109375 9.808594 9.945312 10.003906 9.824219 10.160156 L 9.59375 10.445312 L 9.421875 10.199219 C 8.628906 9.046875 8.242188 7.605469 8.332031 6.105469 C 8.398438 4.859375 8.78125 3.722656 9.433594 2.820312 L 9.667969 2.496094 L 9.867188 2.765625 C 9.976562 2.910156 10.140625 3.171875 10.234375 3.34375 Z M 6.160156 7.535156 C 6.90625 8.554688 7.292969 9.738281 7.335938 11.109375 C 7.363281 12.03125 7.246094 12.800781 6.957031 13.597656 C 6.765625 14.121094 6.628906 14.402344 6.484375 14.566406 C 6.425781 14.636719 6.273438 14.820312 6.148438 14.976562 L 5.921875 15.261719 L 5.761719 15.03125 C 5.023438 13.984375 4.648438 12.730469 4.648438 11.335938 C 4.648438 10.121094 4.90625 9.078125 5.460938 8.09375 C 5.613281 7.828125 5.957031 7.355469 6 7.355469 C 6.015625 7.355469 6.089844 7.433594 6.160156 7.535156 Z M 14.183594 9.664062 C 14.945312 9.886719 15.613281 10.34375 16.164062 11.027344 L 16.402344 11.316406 L 16.140625 11.648438 C 15.054688 13 13.46875 13.449219 12.015625 12.8125 C 11.507812 12.585938 10.964844 12.160156 10.496094 11.609375 L 10.335938 11.421875 L 10.621094 11.03125 C 10.773438 10.820312 10.902344 10.632812 10.902344 10.617188 C 10.902344 10.570312 11.226562 10.308594 11.527344 10.113281 C 11.910156 9.859375 12.375 9.675781 12.882812 9.578125 C 13.101562 9.535156 13.929688 9.589844 14.183594 9.664062 Z M 8.8125 11.167969 C 8.917969 11.3125 9.105469 11.550781 9.222656 11.695312 C 9.34375 11.84375 9.558594 12.128906 9.703125 12.324219 C 9.847656 12.527344 10.058594 12.792969 10.179688 12.917969 L 10.402344 13.144531 L 9.847656 13.125 C 9.238281 13.105469 8.871094 13.15625 8.367188 13.332031 C 8.210938 13.378906 8.085938 13.417969 8.078125 13.410156 C 8.074219 13.402344 8.105469 13.203125 8.152344 12.964844 C 8.277344 12.316406 8.308594 11.886719 8.292969 11.070312 L 8.277344 10.359375 L 8.445312 10.636719 C 8.535156 10.785156 8.699219 11.027344 8.8125 11.167969 Z M 2.519531 12.40625 C 3.589844 13.871094 3.9375 15.933594 3.453125 17.875 C 3.304688 18.453125 3.007812 19.160156 2.8125 19.382812 C 2.753906 19.449219 2.601562 19.636719 2.476562 19.792969 L 2.25 20.074219 L 2.046875 19.792969 C 1.585938 19.140625 1.257812 18.335938 1.085938 17.441406 C 0.808594 15.933594 1.007812 14.417969 1.675781 13.121094 C 1.835938 12.800781 2.265625 12.171875 2.320312 12.171875 C 2.332031 12.171875 2.425781 12.277344 2.519531 12.40625 Z M 10.554688 14.5 C 11.316406 14.730469 11.917969 15.152344 12.503906 15.855469 L 12.730469 16.132812 L 12.46875 16.460938 C 11.707031 17.40625 10.738281 17.90625 9.65625 17.90625 C 8.847656 17.910156 8.109375 17.625 7.445312 17.0625 C 7.230469 16.875 6.789062 16.414062 6.707031 16.285156 C 6.679688 16.238281 6.71875 16.164062 6.953125 15.84375 C 7.105469 15.636719 7.230469 15.445312 7.230469 15.429688 C 7.230469 15.386719 7.554688 15.125 7.851562 14.925781 C 8.230469 14.675781 8.777344 14.464844 9.222656 14.390625 C 9.277344 14.386719 9.535156 14.382812 9.789062 14.386719 C 10.148438 14.398438 10.316406 14.421875 10.554688 14.5 Z M 5.203125 16.066406 C 5.605469 16.570312 5.640625 16.617188 6.050781 17.175781 C 6.230469 17.417969 6.453125 17.691406 6.550781 17.78125 L 6.722656 17.953125 L 6.027344 17.953125 C 5.300781 17.957031 5.097656 17.988281 4.566406 18.191406 L 4.371094 18.265625 L 4.425781 18.03125 C 4.574219 17.398438 4.613281 17.011719 4.613281 16.074219 L 4.613281 15.183594 L 4.738281 15.414062 C 4.8125 15.539062 5.019531 15.828125 5.203125 16.066406 Z M 6.761719 19.28125 C 7.273438 19.410156 7.777344 19.675781 8.203125 20.042969 C 8.488281 20.28125 8.917969 20.742188 8.988281 20.882812 C 9.03125 20.96875 9.023438 20.976562 8.859375 21.199219 C 8.324219 21.914062 7.53125 22.449219 6.695312 22.65625 C 6.304688 22.757812 5.601562 22.75 5.210938 22.640625 C 4.425781 22.421875 3.769531 21.984375 3.195312 21.296875 L 2.992188 21.054688 L 3.277344 20.664062 C 3.429688 20.453125 3.554688 20.261719 3.554688 20.246094 C 3.554688 20.203125 3.875 19.941406 4.148438 19.761719 C 4.554688 19.496094 5.019531 19.308594 5.492188 19.222656 C 5.761719 19.171875 6.476562 19.207031 6.761719 19.28125 Z M 18.703125 12.039062 C 18.402344 12.167969 18.445312 12.070312 16.203125 17.082031 C 15.0625 19.625 14.097656 21.796875 14.0625 21.90625 C 13.921875 22.296875 13.984375 22.804688 14.210938 23.15625 C 14.253906 23.222656 14.375 23.332031 14.480469 23.402344 L 14.675781 23.527344 L 18.984375 23.527344 C 23.160156 23.527344 23.296875 23.523438 23.4375 23.453125 C 23.625 23.359375 23.832031 23.097656 23.917969 22.851562 C 24.015625 22.558594 24.011719 22.121094 23.90625 21.859375 C 23.714844 21.375 19.679688 12.40625 19.617188 12.320312 C 19.574219 12.261719 19.476562 12.171875 19.394531 12.113281 C 19.210938 11.980469 18.914062 11.949219 18.703125 12.039062 Z M 20.984375 17.832031 L 22.957031 22.238281 L 19.007812 22.25 C 16.835938 22.253906 15.050781 22.25 15.042969 22.242188 C 15.027344 22.21875 18.972656 13.421875 18.996094 13.421875 C 19.003906 13.425781 19.898438 15.410156 20.984375 17.832031 Z M 20.984375 17.832031 "/>
<path fill-rule="nonzero" fill="rgb(0%, 0%, 0%)" fill-opacity="1" d="M 18.773438 15.183594 C 18.519531 15.289062 18.324219 15.570312 18.277344 15.898438 C 18.261719 16.035156 18.28125 16.453125 18.363281 17.566406 C 18.488281 19.242188 18.5 19.296875 18.722656 19.472656 C 18.863281 19.578125 19.097656 19.597656 19.226562 19.507812 C 19.339844 19.429688 19.453125 19.246094 19.484375 19.078125 C 19.5 19.003906 19.5625 18.28125 19.621094 17.484375 C 19.742188 15.878906 19.742188 15.828125 19.582031 15.546875 C 19.394531 15.199219 19.078125 15.058594 18.773438 15.183594 Z M 18.789062 19.921875 C 18.542969 20.007812 18.335938 20.257812 18.246094 20.570312 C 18.195312 20.746094 18.207031 21.132812 18.269531 21.316406 C 18.488281 21.96875 19.117188 22.152344 19.507812 21.675781 C 19.675781 21.480469 19.753906 21.277344 19.769531 21.003906 C 19.820312 20.308594 19.300781 19.734375 18.789062 19.921875 Z M 18.789062 19.921875 "/>
</svg>
