<svg xmlns="http://www.w3.org/2000/svg" width="1106.667" height="844" version="1.0" viewBox="0 0 830 633"><path d="M569.7 1.5c-59.1 8.4-107.9 43.2-134.3 95.7-15.6 31-21.2 65.2-16.8 102l1.7 13.6 3.1.6c21.1 3.5 49.7 3.2 69.2-.8 84.6-17.6 143.8-93.1 140-178.6-.3-8-1.2-18.1-1.9-22.5l-1.2-8-8-1.2c-12.8-2-40.5-2.5-51.8-.8zm29.6 44.1c-.3 20.1-5 39.1-14.4 58.2-23.1 46.8-71.1 77.7-121.9 78.5l-12.5.2.2-12.1c.7-45.3 25.2-88.6 64.8-114.3 22.4-14.6 51.9-23.3 77.5-22.7l6.5.1-.2 12.1z"/><path d="M324.5 31.1c-40.7 31.8-64.1 73.7-69.6 124.4-1.1 10.4-.7 29.8.7 39l.7 4-5.4-7c-11.6-15.4-42.1-42.2-45.1-39.8-27.8 21.5-41 35.8-54.7 58.5C132.8 240.8 124 281 128 315.9c.5 4.7.8 8.6.7 8.8-.2.1-2.6-2.8-5.3-6.5-6.8-9.2-22.1-24.3-33.7-33l-9.7-7.4-7.8 5.9c-11.5 8.6-28.5 25.5-36.7 36.4-13 17.2-22.8 37-28.9 58.1-8.2 28.5-8.6 62.3-1.1 91.3 5.2 20 15.2 41.5 27.3 58.5 6.2 8.7 20.5 24 32.7 35 2.8 2.5 8.4 8.3 12.4 12.9 18.4 20.7 45.1 38.2 72.3 47.5 21.5 7.4 41.2 10.2 64.3 9.3 46.9-2 89.7-21.7 121.6-56.2 5.9-6.4 18.9-22.8 18.9-24 0-.3-3.7-5.2-8.2-10.8-9.9-12.3-23.3-25.7-32.2-32.2-3.6-2.7-6.4-5-6.3-5.2.2-.1 3.7.1 7.8.7 9.9 1.3 24.8 1.2 36.7-.1 48.9-5.3 91.4-29.5 121.8-69.1 4.1-5.3 7.4-10 7.4-10.4 0-1.5-15.7-20.3-23.4-28-4.5-4.4-11.6-10.9-16-14.3l-7.9-6.2 5.4.8c10.6 1.6 39.5.7 52-1.5 43.7-7.9 82.4-31.7 109.5-67.4 4.1-5.3 7.4-10 7.4-10.3 0-1.8-14.7-19.3-24-28.5-21.9-22-46.9-36.7-76.3-44.9-15.6-4.4-29-6.1-47.3-6.1-17.2 0-29.3 1.5-44.8 5.4-5.5 1.4-10.1 2.4-10.3 2.2-.3-.2.5-3.5 1.6-7.3 6.1-20.3 8-51.1 4.7-73.3-5.6-37.3-22.3-70.6-48.6-97.1-9.1-9.2-28-24.9-29.8-24.9-.4 0-4.7 3.2-9.7 7.1zM354 88.2c12.4 17 21.4 38.4 25.2 60.3 2.8 16.3 2.1 38.8-1.6 54.9-4.8 20.5-16.5 44.8-25.6 53-2.4 2.3-8 7.5-12.3 11.6l-7.9 7.5-5.9-6.5c-27.5-30.4-40.8-68.4-37.8-108 2.4-32.8 15.6-62.8 38.2-86.6l8.1-8.6 6.8 7.1c3.8 3.9 9.5 10.8 12.8 15.3zM213.1 198.7c25.7 26.9 39.1 58.1 40.6 94.3 1 24.3-3.1 44.6-13.1 65.6-6.6 13.8-11.4 21.3-16.3 25.6-2.1 1.8-7.3 6.7-11.6 10.8l-7.9 7.5-5.5-6c-25.6-27.7-38.6-60.7-38.6-97.5 0-32.1 9-59.6 28.2-85.5 5.2-7 17.1-19.5 18.6-19.5.6 0 3.1 2.1 5.6 4.7zm277.4 56.2c26.3 5.9 49.4 17.9 68.5 35.9l8.3 7.7-9.1 8.7c-37.6 35.7-92.4 47.5-142.6 30.7-17.6-5.9-36.4-17.2-52.6-31.7l-5.5-4.9 9.8-10.3c5.3-5.6 9.7-10.6 9.7-11 0-1.2 11.2-8.1 21.6-13.3 13.3-6.7 29.4-11.5 46.9-14.1 7.6-1.1 36.3.3 45 2.3zm-185.8 39.7c3.7 3.8 10.2 10.1 14.3 13.9 4.1 3.9 11.6 11.4 16.5 16.6 5 5.3 12.4 12.3 16.6 15.6l7.6 6-19.1-.5c-21.1-.5-33.8.8-51.3 5.4-5.3 1.3-9.7 2.3-9.9 2.1-.2-.2.9-5.5 2.5-11.8 4.3-17.1 5.4-28.4 4.9-49.9l-.5-18.8 5.7 7.3c3.2 4 8.9 10.3 12.7 14.1zM87.2 327.2c36.9 38.6 49 93.1 32.2 144.3-5.1 15.2-15.4 33.8-22.1 39.7-2.1 1.8-7.3 6.7-11.6 10.8l-7.9 7.5-7-7.5c-16-17.2-27.3-38.4-33.2-62-9.7-39.7-2.7-79.7 20.3-113.9 5.6-8.5 20.4-25.1 22.3-25.1.5 0 3.7 2.8 7 6.2zM365 382.4c26.3 6.1 47.2 17.2 67.4 35.8l7.9 7.3-9.1 8.7c-26.3 24.9-59.8 38.1-97.2 38.1-28 .1-53.6-7.4-76.5-22.3-7.4-4.9-22.7-17.1-25.5-20.5-1-1.2.4-3.2 8.4-11.6 5.3-5.5 9.6-10.5 9.6-10.9 0-1.2 11.2-8.1 21.6-13.3 13.1-6.6 32-12.2 47.4-14.1 1.9-.2 10.7-.3 19.5-.1 12.5.3 18.3.9 26.5 2.9zm-185.1 41.3c13.9 13.3 15.2 14.6 29.4 29.3 6.2 6.4 13.9 13.6 17.2 16l6 4.5h-24c-25.2.1-32.2.9-50.6 6.3l-6.7 2 1.9-6.2c5.1-16.7 6.4-26.9 6.4-51.6v-23.5l4.4 6c2.5 3.3 9.7 11 16 17.2zm53.9 84.8c17.8 3.4 35.1 10.4 49.9 20.1 9.8 6.3 24.7 18.5 27.1 22.2 1.5 2.3 1.3 2.5-4.4 8.3-18.5 18.9-45.9 33-74.9 38.5-13.4 2.6-37.8 2.4-51.3-.5-27.1-5.7-49.9-17.3-69.7-35.4l-7-6.4 9.8-10.3c5.3-5.6 9.7-10.6 9.7-11 0-1.1 11-8 20.5-12.8 14-7 30.1-11.9 46.5-14.2 9.2-1.3 34-.4 43.8 1.5zM646.8 317.5c-10.4 3.4-8.9.9-86.4 133-39.5 67.1-72.8 124.4-74.1 127.3-4.8 10.3-2.7 23.7 5.1 32.9 1.5 1.8 5.7 4.7 9.4 6.5l6.7 3.3h149c144.5 0 149.2-.1 154-1.9 6.5-2.5 13.7-9.4 16.6-15.9 3.5-7.7 3.3-19.3-.3-26.2-6.6-12.7-146.2-249.3-148.4-251.6-1.4-1.5-4.8-3.9-7.7-5.4-6.3-3.5-16.6-4.3-23.9-2zm78.9 152.8 68.2 116.2-136.6.3c-75.1.1-136.8 0-137.1-.2-.5-.6 135.9-232.6 136.7-232.6.3.1 31.3 52.4 68.8 116.3z"/><path d="M649.2 400.5c-8.7 2.7-15.5 10.2-17.1 18.8-.6 3.6.1 14.7 3 44 4.3 44.2 4.7 45.7 12.4 50.3 4.9 2.8 12.9 3.3 17.4.9 4-2 7.9-6.9 9-11.3.5-2 2.6-21 4.7-42.1 4.1-42.3 4.1-43.6-1.4-51.1-6.5-9.1-17.4-12.8-28-9.5zM649.8 525.4c-8.5 2.3-15.7 8.9-18.8 17.1-1.8 4.7-1.4 14.9.8 19.7 7.6 17.2 29.3 22.1 42.9 9.5 5.7-5.2 8.4-10.5 9-17.7 1.7-18.4-16.2-33.5-33.9-28.6z"/></svg>