<?xml version="1.0" encoding="UTF-8"?>
<svg xmlns="http://www.w3.org/2000/svg" xmlns:xlink="http://www.w3.org/1999/xlink" width="24" height="24" viewBox="0 0 24 24">
<path fill-rule="nonzero" fill="rgb(0%, 0%, 0%)" fill-opacity="1" d="M 17.605469 2.160156 L 10.714844 2.160156 L 10.714844 1.46875 C 10.714844 1.085938 10.402344 0.777344 10.023438 0.773438 L 8.042969 0.773438 C 7.660156 0.777344 7.351562 1.085938 7.351562 1.46875 L 7.351562 2.160156 L 6.394531 2.160156 C 6.050781 2.160156 5.769531 2.441406 5.769531 2.785156 L 5.769531 22.597656 C 5.769531 22.945312 6.050781 23.226562 6.394531 23.226562 L 17.605469 23.226562 C 17.949219 23.226562 18.230469 22.945312 18.230469 22.597656 L 18.230469 2.785156 C 18.230469 2.441406 17.949219 2.160156 17.605469 2.160156 Z M 17.589844 2.753906 L 16.617188 4.746094 L 15.640625 2.753906 Z M 7.945312 1.46875 C 7.945312 1.414062 7.988281 1.367188 8.042969 1.367188 L 10.023438 1.367188 C 10.078125 1.367188 10.121094 1.414062 10.121094 1.46875 L 10.121094 2.160156 L 7.945312 2.160156 Z M 15 22.632812 L 6.394531 22.632812 C 6.378906 22.632812 6.363281 22.617188 6.363281 22.597656 L 6.363281 2.785156 C 6.363281 2.769531 6.378906 2.753906 6.394531 2.753906 L 15 2.753906 Z M 17.636719 22.597656 C 17.636719 22.617188 17.621094 22.632812 17.605469 22.632812 L 15.59375 22.632812 L 15.59375 4.007812 L 16.347656 5.554688 C 16.359375 5.574219 16.371094 5.589844 16.386719 5.605469 C 16.386719 5.609375 16.390625 5.617188 16.394531 5.621094 C 16.417969 5.648438 16.445312 5.667969 16.476562 5.683594 C 16.480469 5.683594 16.480469 5.6875 16.484375 5.691406 C 16.496094 5.695312 16.507812 5.699219 16.519531 5.703125 C 16.527344 5.703125 16.53125 5.707031 16.539062 5.710938 C 16.566406 5.714844 16.589844 5.71875 16.613281 5.71875 L 16.617188 5.71875 C 16.640625 5.71875 16.664062 5.714844 16.691406 5.710938 C 16.699219 5.707031 16.703125 5.703125 16.710938 5.703125 C 16.722656 5.699219 16.734375 5.695312 16.746094 5.691406 C 16.75 5.6875 16.75 5.683594 16.753906 5.683594 C 16.785156 5.667969 16.8125 5.644531 16.835938 5.621094 C 16.839844 5.617188 16.84375 5.609375 16.847656 5.605469 C 16.859375 5.589844 16.871094 5.574219 16.882812 5.554688 L 17.636719 4.007812 Z M 17.636719 22.597656 "/>
<path fill-rule="nonzero" fill="rgb(0%, 0%, 0%)" fill-opacity="1" d="M 10.804688 16.914062 C 10.976562 16.914062 11.148438 16.902344 11.320312 16.875 C 12.765625 16.660156 13.882812 15.433594 13.855469 14.066406 L 13.851562 13.980469 C 13.847656 13.914062 13.84375 13.847656 13.835938 13.78125 C 13.78125 13.335938 13.640625 12.875 13.394531 12.335938 C 13.035156 11.542969 12.554688 10.757812 11.835938 9.785156 C 11.597656 9.460938 11.347656 9.144531 11.089844 8.839844 C 11.054688 8.800781 10.960938 8.6875 10.796875 8.6875 C 10.6875 8.6875 10.585938 8.738281 10.503906 8.839844 C 9.949219 9.519531 9.519531 10.09375 9.15625 10.648438 C 8.75 11.265625 8.242188 12.097656 7.929688 13.042969 C 7.675781 13.804688 7.6875 14.488281 7.957031 15.128906 C 8.410156 16.214844 9.53125 16.914062 10.804688 16.914062 Z M 8.492188 13.226562 C 8.785156 12.347656 9.265625 11.5625 9.652344 10.972656 C 9.96875 10.492188 10.335938 9.996094 10.800781 9.417969 C 10.992188 9.652344 11.179688 9.894531 11.359375 10.136719 C 12.054688 11.074219 12.515625 11.828125 12.855469 12.582031 C 13.074219 13.0625 13.199219 13.46875 13.246094 13.851562 C 13.253906 13.90625 13.253906 13.960938 13.257812 14.015625 L 13.265625 14.09375 C 13.285156 15.152344 12.390625 16.117188 11.234375 16.289062 C 11.089844 16.3125 10.949219 16.320312 10.808594 16.320312 C 9.769531 16.320312 8.867188 15.761719 8.503906 14.898438 C 8.292969 14.394531 8.289062 13.847656 8.492188 13.226562 Z M 8.492188 13.226562 "/>
<path fill-rule="nonzero" fill="rgb(0%, 0%, 0%)" fill-opacity="1" d="M 10.035156 15.605469 C 10.1875 15.648438 10.351562 15.5625 10.398438 15.410156 C 10.449219 15.253906 10.363281 15.089844 10.214844 15.039062 C 9.789062 14.902344 9.507812 14.535156 9.527344 14.144531 C 9.539062 13.980469 9.414062 13.839844 9.25 13.828125 C 9.082031 13.824219 8.945312 13.945312 8.9375 14.109375 C 8.898438 14.773438 9.347656 15.386719 10.035156 15.605469 Z M 10.914062 15.882812 C 10.988281 15.882812 11.066406 15.847656 11.125 15.792969 C 11.175781 15.738281 11.207031 15.660156 11.207031 15.582031 C 11.207031 15.507812 11.175781 15.429688 11.121094 15.375 C 11.011719 15.265625 10.8125 15.265625 10.703125 15.375 C 10.648438 15.425781 10.617188 15.503906 10.617188 15.582031 C 10.617188 15.660156 10.648438 15.738281 10.703125 15.792969 C 10.757812 15.847656 10.835938 15.882812 10.914062 15.882812 Z M 10.914062 15.882812 "/>
</svg>
