<?xml version="1.0" encoding="UTF-8"?>
<svg xmlns="http://www.w3.org/2000/svg" xmlns:xlink="http://www.w3.org/1999/xlink" width="24" height="24" viewBox="0 0 24 24">
<path fill="none" stroke-width="0.841986" stroke-linecap="round" stroke-linejoin="round" stroke="rgb(0%, 0%, 0%)" stroke-opacity="1" stroke-miterlimit="4" d="M 12.899236 6.282424 C 12.899236 9.218582 10.395436 11.600007 7.306308 11.600007 C 4.217179 11.600007 1.71338 9.218582 1.71338 6.282424 C 1.71338 3.346267 4.217179 0.966709 7.306308 0.966709 C 10.395436 0.966709 12.899236 3.346267 12.899236 6.282424 Z M 12.899236 6.282424 " transform="matrix(1.995405, 0, 0, 2.091381, -2.579043, -1.138945)"/>
<path fill-rule="nonzero" fill="rgb(0%, 0%, 0%)" fill-opacity="1" stroke-width="0.768417" stroke-linecap="butt" stroke-linejoin="miter" stroke="rgb(0%, 0%, 0%)" stroke-opacity="1" stroke-miterlimit="4" d="M 1.451315 7.849967 L 5.559765 7.061438 " transform="matrix(2.069858, 0, 0, 2.090524, -2.703234, -1.43789)"/>
<path fill-rule="nonzero" fill="rgb(0%, 0%, 0%)" fill-opacity="1" stroke-width="0.734087" stroke-linecap="butt" stroke-linejoin="miter" stroke="rgb(0%, 0%, 0%)" stroke-opacity="1" stroke-miterlimit="4" d="M 9.030339 6.467239 L 12.359372 5.852486 " transform="matrix(2.069858, 0, 0, 2.090524, -2.703234, -1.43789)"/>
<path fill-rule="nonzero" fill="rgb(0%, 0%, 0%)" fill-opacity="1" stroke-width="4.86409" stroke-linecap="butt" stroke-linejoin="miter" stroke="rgb(0%, 0%, 0%)" stroke-opacity="1" stroke-miterlimit="4" d="M 345.892219 122.802882 C 345.590941 121.454964 344.506339 120.444026 343.180714 120.107047 C 337.034637 118.646803 330.647538 118.253661 324.079671 118.983783 C 308.714478 120.724842 293.530053 128.138387 281.478921 139.8765 C 269.367534 151.614613 261.715066 166.329377 259.967652 181.324957 C 259.30484 186.941279 259.485607 192.445274 260.630464 197.78078 C 260.570208 197.836943 260.509953 197.893106 260.449697 197.94927 C 243.879391 217.044764 232.671839 237.825156 225.200138 258.380894 C 218.752782 234.174546 209.172133 211.933911 196.5787 192.108295 C 177.899447 162.566441 152.351048 138.023114 120.716828 119.152272 C 119.02967 118.197498 116.920722 118.59064 115.715609 120.107047 C 114.570751 121.567291 114.751518 123.757656 116.197654 124.993247 C 154.640763 159.140485 181.695553 198.847881 196.699212 242.992172 C 202.9658 261.582198 211.341336 291.9665 211.341336 340.716174 C 211.341336 342.73805 213.028495 344.366784 215.137443 344.366784 L 231.225703 344.366784 C 233.274396 344.366784 234.961554 342.73805 234.961554 340.716174 C 234.961554 338.076503 234.961554 335.324505 234.961554 332.572508 C 234.720531 296.178741 234.479509 250.068738 267.017564 203.172449 C 270.090602 203.677918 273.223896 203.958734 276.417446 203.958734 C 278.526394 203.958734 280.695598 203.846408 282.864802 203.565592 C 298.29025 201.880695 313.474675 194.46715 325.525807 182.729037 C 337.637194 170.934761 345.289662 156.219997 347.037076 141.280581 C 347.8204 134.934137 347.39861 128.70002 345.892219 122.802882 Z M 203.809379 240.68948 C 193.023617 208.732608 176.031521 179.078428 153.134372 152.063919 C 167.535474 165.037623 179.948139 179.696223 190.191601 195.927394 C 204.411936 218.336518 214.655398 243.946947 220.741219 272.028557 C 218.813038 278.71198 217.186135 285.507729 215.860511 292.359642 C 213.691307 276.465451 210.015712 258.942526 203.809379 240.68948 Z M 227.429597 332.628671 C 227.429597 334.088914 227.429597 335.605321 227.429597 337.065565 L 218.933549 337.065565 C 219.234828 313.027707 222.970678 282.980384 235.262832 253.101552 C 227.128319 282.306426 227.309086 309.93873 227.429597 332.628671 Z M 339.565375 140.438133 C 336.311569 168.070437 310.461893 193.119233 282.021222 196.320536 C 278.58665 196.713679 275.212333 196.713679 271.958528 196.432863 C 284.13017 180.426345 300.338942 164.363664 321.850212 148.637963 C 323.477114 147.402372 323.838648 145.09968 322.57328 143.470946 C 321.307911 141.898376 318.95794 141.561397 317.270782 142.796988 C 297.024881 157.624078 280.39432 173.405943 267.198331 190.311072 C 267.017564 187.615237 267.077819 184.863239 267.439353 182.167405 C 270.693159 154.535101 296.542836 129.430142 324.983506 126.285001 C 329.803958 125.723369 334.564155 125.891859 339.08333 126.734307 C 339.987165 131.115038 340.107676 135.720422 339.565375 140.438133 Z M 339.565375 140.438133 " transform="matrix(-0.0648279, 0, 0, 0.0695517, 26.833636, -3.068499)"/>
</svg>
