<?xml version="1.0" encoding="UTF-8" standalone="no"?>
<svg
   xml:space="preserve"
   width="662.561"
   height="656.011"
   aria-hidden="true"
   viewBox="0 0 11.595 11.48"
   version="1.1"
   id="svg3"
   sodipodi:docname="no-vegan.svg"
   inkscape:export-filename="no-vegan.svg"
   inkscape:export-xdpi="96"
   inkscape:export-ydpi="96"
   inkscape:version="1.3 (0e150ed6c4, 2023-07-21)"
   xmlns:inkscape="http://www.inkscape.org/namespaces/inkscape"
   xmlns:sodipodi="http://sodipodi.sourceforge.net/DTD/sodipodi-0.dtd"
   xmlns="http://www.w3.org/2000/svg"
   xmlns:svg="http://www.w3.org/2000/svg"><defs
     id="defs3" /><sodipodi:namedview
     id="namedview3"
     pagecolor="#ffffff"
     bordercolor="#000000"
     borderopacity="0.25"
     inkscape:showpageshadow="2"
     inkscape:pageopacity="0.0"
     inkscape:pagecheckerboard="0"
     inkscape:deskcolor="#d1d1d1"
     inkscape:zoom="1.2210161"
     inkscape:cx="331.28145"
     inkscape:cy="328.00549"
     inkscape:window-width="1870"
     inkscape:window-height="1044"
     inkscape:window-x="50"
     inkscape:window-y="1050"
     inkscape:window-maximized="1"
     inkscape:current-layer="g3" /><g
     transform="translate(-1.306 -.688)"
     id="g3"><ellipse
       cx="7.307"
       cy="6.283"
       rx="5.593"
       ry="5.317"
       style="opacity:1;fill:none;fill-opacity:1;fill-rule:evenodd;stroke:#000;stroke-width:.841986;stroke-linecap:round;stroke-linejoin:round;stroke-dasharray:none;stroke-opacity:1"
       transform="matrix(.96403 0 0 1.00041 .06 .143)"
       id="ellipse1" /><path
       stroke="#000000"
       stroke-width=".449"
       d="M 1.4520314,7.8497529 5.5595608,7.0611353"
       style="stroke-width:0.768417;stroke-dasharray:none"
       id="path1" /><path
       stroke="#000000"
       stroke-width=".449"
       d="M 9.0306656,6.4676591 12.359874,5.8520843"
       style="stroke-width:0.734087;stroke-dasharray:none"
       id="path1-2" /><g
       style="fill:#000;stroke:#000;stroke-width:4.86409;stroke-dasharray:none;stroke-opacity:1"
       id="g2"><path
         d="M345.92 122.776c-.335-1.32-1.396-2.35-2.755-2.676-6.109-1.461-12.52-1.832-19.057-1.1-15.415 1.727-30.563 9.145-42.656 20.887-12.092 11.742-19.73 26.453-21.508 41.422-.669 5.628-.44 11.16.668 16.476-.052.054-.11.1-.16.158-16.575 19.122-27.797 39.892-35.276 60.45-6.42-24.196-15.997-46.456-28.57-66.304-18.717-29.548-44.253-54.08-75.9-72.916-1.656-.984-3.81-.587-4.977.918a3.58 3.58 0 0 0 .466 4.897c38.44 34.165 65.52 73.871 80.489 118.016 6.304 18.591 14.685 48.947 14.685 97.705 0 2.02 1.686 3.657 3.765 3.657H231.2c2.08 0 3.766-1.637 3.766-3.657 0-2.65-.015-5.364-.03-8.136-.197-36.42-.445-82.531 32.106-129.423 3.065.534 6.194.803 9.37.803 2.14 0 4.301-.121 6.475-.365 15.415-1.726 30.564-9.144 42.656-20.887 12.092-11.742 19.731-26.453 21.509-41.422.755-6.346.374-12.572-1.132-18.503zM203.837 240.717c-10.836-31.96-27.833-61.637-50.715-88.633 14.404 12.974 26.8 27.625 37.069 43.836 14.191 22.405 24.463 48.01 30.54 76.106a227.612 227.612 0 0 0-4.866 20.317c-2.173-15.903-5.846-33.395-12.028-51.626zm23.568 91.895c.01 1.497.016 2.978.022 4.44h-8.502c.332-24.02 4.031-54.056 16.35-83.96-8.141 29.209-7.992 56.86-7.87 79.52zm112.166-192.17c-3.28 27.627-29.096 52.695-57.546 55.881-3.42.384-6.793.412-10.087.1 12.198-16.013 28.393-32.068 49.893-47.81 1.661-1.216 1.992-3.51.74-5.122s-3.613-1.934-5.274-.718c-20.289 14.855-36.92 30.626-50.106 47.552a45.352 45.352 0 0 1 .235-8.179c3.28-27.627 29.096-52.695 57.546-55.881 4.835-.541 9.578-.388 14.13.456.868 4.42 1.027 9.025.47 13.72z"
         style="stroke:#000;stroke-width:4.86409;stroke-dasharray:none;stroke-opacity:1"
         transform="matrix(-.03132 0 0 .03327 14.27 -.78)"
         id="path2" /></g></g></svg>
