<?xml version="1.0" standalone="no"?>
<!DOCTYPE svg PUBLIC "-//W3C//DTD SVG 20010904//EN"
 "http://www.w3.org/TR/2001/REC-SVG-20010904/DTD/svg10.dtd">
<svg version="1.0" xmlns="http://www.w3.org/2000/svg"
 width="800.000000pt" height="800.000000pt" viewBox="0 0 800.000000 800.000000"
 preserveAspectRatio="xMidYMid meet">
<metadata>
Created by potrace 1.16, written by Peter Selinger 2001-2019
</metadata>
<g transform="translate(0.000000,800.000000) scale(0.100000,-0.100000)"
fill="#000000" stroke="none">
<path d="M73 7986 c-37 -17 -73 -69 -73 -107 0 -58 23 -87 197 -249 184 -172
457 -454 654 -675 1162 -1305 1926 -2822 2254 -4477 126 -641 191 -1286 211
-2103 7 -306 10 -321 67 -355 30 -19 52 -20 335 -20 330 0 354 3 389 56 17 26
18 72 24 714 8 813 24 1092 90 1554 138 967 445 1804 943 2575 l67 103 42 -6
c98 -14 415 -18 502 -7 268 35 516 109 760 230 692 342 1217 981 1400 1701 47
185 59 283 59 490 1 260 -30 448 -81 502 -27 28 -87 46 -228 69 -118 20 -445
17 -570 -4 -422 -73 -804 -246 -1155 -524 -108 -85 -346 -323 -434 -433 -290
-364 -477 -795 -536 -1233 -15 -113 -12 -365 5 -486 l15 -105 -45 -55 c-480
-593 -838 -1214 -1111 -1929 -32 -84 -61 -147 -65 -140 -3 7 -28 90 -54 183
-527 1893 -1621 3434 -3200 4507 -334 227 -392 255 -462 224z m7532 -257 c50
-6 95 -16 102 -22 6 -7 16 -52 22 -102 68 -566 -186 -1211 -664 -1690 -323
-324 -735 -553 -1150 -641 -95 -20 -160 -27 -312 -31 -106 -3 -193 -2 -193 2
0 10 58 88 164 220 372 465 875 952 1424 1379 149 116 172 142 172 197 0 90
-106 158 -183 117 -28 -14 -258 -194 -407 -317 -460 -380 -896 -819 -1223
-1231 -55 -69 -104 -129 -109 -135 -19 -19 -2 300 22 420 83 416 312 835 635
1160 361 362 808 599 1255 664 41 6 86 13 100 15 56 8 261 5 345 -5z m-6060
-1141 c266 -271 446 -480 665 -773 648 -865 1113 -1890 1384 -3047 l46 -197
-50 -198 c-28 -109 -65 -270 -84 -358 -36 -173 -35 -172 -56 -20 -40 288 -108
634 -190 970 -329 1341 -966 2629 -1837 3713 -45 56 -75 98 -65 93 9 -5 94
-87 187 -183z m2540 -3574 c-99 -426 -159 -860 -196 -1399 -6 -88 -13 -429
-16 -757 l-6 -598 -145 0 -145 0 7 208 c27 811 168 1632 404 2347 57 172 124
356 129 351 2 -1 -13 -70 -32 -152z"/>
</g>
</svg>
